PathFileType	4	(X/Y/Z)	c:/Users/goper/Files/vsCode/490R/osim_files/C15/C15_Static03.trc
DataRate	CameraRate	NumFrames	NumMarkers	Units                	OrigDataRate	OrigDataStartFrame	OrigNumFrames
250.00	250.00	6	36	mm	250.0	1	1115
                Frame#	Time	LPSIS			LASIS			LTH1			LTH2			LTH3			LTH4			LLFE			LMFE			LSH1			LSH2			LSH3			LSH4			LLMAL			LMMAL			LCAL			LMTP5			LTOE			LMTP1			RPSIS			RASIS			RTH1			RTH2			RTH3			RTH4			RLFE			RMFE			RSH1			RSH2			RSH3			RSH4			RLMAL			RMMAL			RCAL			RMTP1			RTOE			RMTP5		
		X1	Y1	Z1	X2	Y2	Z2	X3	Y3	Z3	X4	Y4	Z4	X5	Y5	Z5	X6	Y6	Z6	X7	Y7	Z7	X8	Y8	Z8	X9	Y9	Z9	X10	Y10	Z10	X11	Y11	Z11	X12	Y12	Z12	X13	Y13	Z13	X14	Y14	Z14	X15	Y15	Z15	X16	Y16	Z16	X17	Y17	Z17	X18	Y18	Z18	X19	Y19	Z19	X20	Y20	Z20	X21	Y21	Z21	X22	Y22	Z22	X23	Y23	Z23	X24	Y24	Z24	X25	Y25	Z25	X26	Y26	Z26	X27	Y27	Z27	X28	Y28	Z28	X29	Y29	Z29	X30	Y30	Z30	X31	Y31	Z31	X32	Y32	Z32	X33	Y33	Z33	X34	Y34	Z34	X35	Y35	Z35	X36	Y36	Z36

1	0.00000	-417.27542	1027.79932	398.16602	-254.60048	1008.64868	326.90103	-345.13083	634.33820	248.01074	-350.33722	587.23486	261.43433	-293.23941	637.31873	251.06596	-295.84012	592.08716	257.92584	-333.94064	499.90189	274.89938	-329.58322	476.74814	394.02084	-405.54468	395.94089	257.49725	-408.64743	353.43161	248.70296	-343.99930	387.70007	254.86118	-355.05356	344.82535	246.13344	-402.59250	84.91688	288.38159	-382.61575	104.20271	379.14542	-463.67526	58.25649	331.61200	-280.88782	35.98875	263.25833	-224.54559	58.77902	326.43069	-260.35956	38.86774	381.69101	-411.22513	1028.19446	518.16620	-254.34183	1002.97095	580.87854	-329.64136	642.15027	650.31012	-330.47031	595.31958	644.79187	-270.19171	636.38947	636.77228	-279.19720	590.44232	636.19324	-327.95309	497.36789	622.65955	-345.17999	473.62241	506.56174	-418.66003	400.58850	647.94812	-421.08401	357.51611	655.37994	-357.44797	388.78305	649.89813	-369.62817	348.93304	658.06110	-416.34225	84.88658	616.51624	-386.90439	102.87811	528.63477	-476.85626	58.69917	572.39111	-273.39755	37.68419	534.90570	-239.42583	55.45666	588.34076	-299.56036	30.99867	653.97717
2	0.00400	-417.24063	1027.77637	398.17505	-254.59764	1008.64813	326.92307	-345.13263	634.35370	248.02324	-350.37521	587.22583	261.45609	-293.23419	637.31989	251.09392	-295.83304	592.08252	257.94254	-333.96152	499.90503	274.91226	-329.58365	476.75992	394.02692	-405.55402	395.93179	257.51163	-408.66391	353.43063	248.71173	-343.99683	387.69797	254.87065	-355.04657	344.84921	246.15945	-402.59692	84.94363	288.38058	-382.58310	104.17937	379.14969	-463.66724	58.23870	331.60602	-280.87469	35.96850	263.26056	-224.51286	58.78931	326.43484	-260.34567	38.86732	381.70325	-411.22803	1028.18164	518.18457	-254.32129	1002.94989	580.92169	-329.59818	642.13788	650.30835	-330.44812	595.27002	644.78790	-270.20322	636.38068	636.80066	-279.17151	590.43250	636.20819	-327.96695	497.31552	622.65063	-345.15808	473.61307	506.56351	-418.63382	400.58057	647.95392	-421.02585	357.48145	655.37799	-357.42139	388.76205	649.91119	-369.62289	348.93304	658.07898	-416.31610	84.86973	616.50177	-386.90381	102.88064	528.63190	-476.85172	58.66722	572.39819	-273.38940	37.69665	534.88989	-239.16801	55.65538	588.45386	-299.54871	30.99990	653.98334
3	0.00800	-417.28128	1027.78333	398.19919	-254.57037	1008.66296	326.95349	-345.12576	634.36920	248.04584	-350.36331	587.22174	261.45712	-293.21271	637.33838	251.11172	-295.77878	592.08960	257.97354	-333.93344	499.92859	274.91068	-329.57736	476.72906	394.03558	-405.56003	395.92255	257.53055	-408.66190	353.45007	248.72534	-344.00232	387.66937	254.89032	-355.02817	344.85712	246.15671	-402.60123	84.95119	288.38678	-382.58435	104.17809	379.15350	-463.69122	58.22497	331.62585	-280.97696	35.83684	263.36542	-224.51338	58.78273	326.44284	-260.34039	38.87236	381.70703	-411.20856	1028.16016	518.21039	-254.33180	1002.93011	580.94934	-329.58200	642.10291	650.30890	-330.39380	595.19580	644.80499	-270.16873	636.36249	636.81403	-279.15259	590.44098	636.23151	-327.91000	497.30176	622.68652	-345.15222	473.63049	506.57584	-418.59302	400.55737	647.96350	-420.99542	357.45963	655.41064	-357.40149	388.74503	649.90778	-369.60800	348.92725	658.08600	-416.28604	84.84270	616.50708	-386.90329	102.87798	528.63928	-476.82404	58.64269	572.41382	-273.38080	37.67536	534.90112	-239.20335	55.63173	588.45166	-299.53900	30.99103	653.97534
4	0.01200	-417.27667	1027.76160	398.23376	-254.50145	1008.69769	326.93808	-345.13416	634.34631	248.08441	-350.33917	587.21069	261.48386	-293.21591	637.33600	251.13182	-295.84018	592.07471	257.97702	-333.98044	499.91904	274.94394	-329.54150	476.75528	394.06979	-405.57550	395.91107	257.56940	-408.66345	353.45209	248.74030	-344.00381	387.64203	254.92827	-355.04047	344.85233	246.16957	-402.62061	84.95395	288.39642	-382.59613	104.15759	379.15747	-463.68262	58.15699	331.57712	-280.98361	35.81019	263.38199	-224.51807	58.77357	326.45187	-260.34241	38.85493	381.69739	-411.18964	1028.14575	518.22791	-254.32095	1002.91986	580.98962	-329.60953	642.07233	650.33173	-330.39447	595.17188	644.84814	-270.15805	636.34576	636.84906	-279.13708	590.42426	636.24817	-327.93121	497.27155	622.67169	-345.14960	473.62372	506.59949	-418.57767	400.55121	647.99493	-420.97144	357.46906	655.42102	-357.42340	388.72644	649.96246	-369.58746	348.92630	658.09888	-416.34186	84.81776	616.52179	-386.89508	102.86111	528.65082	-476.85696	58.65099	572.41101	-273.39548	37.64936	534.90808	-239.19510	55.63590	588.45575	-299.56769	30.98771	653.97467
5	0.01600	-417.27277	1027.76025	398.28696	-254.49467	1008.69690	326.94952	-345.16501	634.33032	248.10904	-350.40527	587.17609	261.54636	-293.21753	637.33313	251.15527	-295.80280	592.09338	258.00070	-333.96518	499.92484	274.96356	-329.51865	476.76398	394.06091	-405.54211	395.91431	257.56732	-408.65088	353.46759	248.74796	-344.01233	387.66727	254.91647	-355.04062	344.85492	246.19066	-402.61429	84.94517	288.39865	-382.61212	104.16042	379.18048	-463.64075	58.15088	331.58875	-280.98236	35.82057	263.37360	-224.52431	58.78540	326.44516	-260.36862	38.85532	381.70523	-411.20746	1028.15601	518.27179	-254.29050	1002.94141	581.01141	-329.61224	642.07715	650.34521	-330.41052	595.15851	644.82898	-270.15390	636.35168	636.85773	-279.10690	590.43958	636.24988	-327.91547	497.29315	622.67389	-345.14575	473.61713	506.62082	-418.57950	400.56308	648.01300	-420.96405	357.46844	655.42004	-357.40115	388.74304	649.95728	-369.57681	348.92969	658.10413	-416.36209	84.80128	616.51068	-386.90131	102.86336	528.64819	-476.89114	58.67729	572.40955	-273.40439	37.66576	534.90228	-239.18765	55.63977	588.44556	-299.56726	30.97985	653.99756
6	0.02000	-417.24078	1027.73560	398.30240	-254.49161	1008.67920	326.96558	-345.15421	634.31848	248.11453	-350.40814	587.15924	261.57529	-293.23883	637.31097	251.14502	-295.83533	592.07776	258.00449	-333.98737	499.89688	274.98810	-329.52008	476.77194	394.06781	-405.54288	395.88458	257.56689	-408.66010	353.45193	248.76089	-343.98312	387.65204	254.90973	-355.03281	344.84473	246.19240	-402.60855	84.93301	288.38785	-382.61691	104.18958	379.17297	-463.63623	58.12467	331.61139	-280.98145	35.80802	263.36545	-224.54343	58.77788	326.42404	-260.36057	38.85691	381.69955	-411.23517	1028.16992	518.29510	-254.28143	1002.94122	581.02588	-329.60849	642.08551	650.36548	-330.27020	595.40485	644.86365	-270.14124	636.33838	636.87006	-279.12036	590.43591	636.25031	-327.86377	497.31989	622.72748	-345.13553	473.60538	506.62268	-418.59430	400.56738	647.98584	-420.98425	357.46991	655.40314	-357.39883	388.73410	649.95526	-369.58228	348.92383	658.10706	-416.34024	84.81263	616.50769	-386.91156	102.83023	528.64441	-476.89758	58.68655	572.40820	-273.41498	37.65755	534.88959	-239.21617	55.61603	588.44196	-299.57489	30.99253	653.98572
